<?xml version="1.0" standalone="no"?>
<!DOCTYPE svg PUBLIC "-//W3C//DTD SVG 20010904//EN"
 "http://www.w3.org/TR/2001/REC-SVG-20010904/DTD/svg10.dtd">
<svg version="1.0" xmlns="http://www.w3.org/2000/svg"
 width="260.000000pt" height="260.000000pt" viewBox="0 0 260.000000 260.000000"
 preserveAspectRatio="xMidYMid meet">
<metadata>
Created by potrace 1.14, written by Peter Selinger 2001-2017
</metadata>
<g transform="translate(0.000000,260.000000) scale(0.100000,-0.100000)"
fill="#000000" stroke="none">
<path d="M0 2543 l0 -58 20 44 c25 55 25 71 0 71 -18 0 -20 -7 -20 -57z"/>
<path d="M113 2593 c18 -5 24 -25 6 -20 -6 1 -13 -6 -14 -15 -3 -14 1 -15 20
-8 18 7 23 6 19 -3 -2 -7 -25 -19 -51 -25 -25 -7 -43 -15 -41 -18 3 -3 33 3
67 12 33 10 63 15 66 12 7 -7 -36 -132 -49 -140 -15 -11 -28 -10 -22 1 12 18
-35 18 -58 0 -13 -10 -31 -19 -40 -19 -12 0 -15 -9 -13 -39 2 -44 17 -54 74
-51 28 1 32 -1 26 -17 -9 -25 -27 -35 -33 -19 -4 9 -14 10 -37 4 -30 -8 -33
-12 -33 -49 0 -28 4 -38 12 -33 17 10 58 14 58 4 0 -4 -16 -15 -35 -24 -44
-21 -45 -29 -2 -22 l32 6 -30 -11 c-40 -15 -42 -18 -25 -29 13 -9 13 -10 0
-10 -13 0 -13 -1 0 -10 10 -6 11 -10 3 -10 -10 0 -13 -216 -13 -1009 l0 -1008
41 -7 c22 -4 44 -4 50 -1 5 4 9 1 9 -5 0 -6 4 -9 9 -6 5 4 11 0 14 -6 4 -10 7
-11 18 -1 15 15 33 17 24 3 -8 -12 -118 -11 1186 -16 l1115 -5 13 178 c7 98
14 196 17 218 2 22 11 130 19 240 9 110 17 214 20 230 2 17 7 73 11 125 4 52
8 104 10 115 1 11 3 30 3 42 1 12 9 24 21 28 20 6 20 15 20 716 l0 709 -1193
0 c-937 0 -1196 -3 -1205 -12 -9 -9 -15 -10 -20 -2 -4 6 -25 11 -47 11 -22 0
-32 -2 -22 -4z m1642 -618 c115 -24 243 -94 328 -178 135 -136 187 -258 194
-462 7 -190 -24 -303 -122 -441 -86 -120 -252 -228 -401 -259 -92 -20 -257
-19 -347 1 -250 56 -442 237 -503 474 l-18 70 -89 0 -89 0 3 -32 c1 -18 1
-140 0 -270 l-1 -238 -150 0 -150 0 0 88 c0 48 -1 347 -2 665 l-3 577 154 -2
154 -3 -2 -257 -1 -258 89 0 90 0 16 58 c66 226 247 401 477 462 91 24 272 26
373 5z"/>
<path d="M1487 1720 c-254 -65 -375 -376 -245 -633 123 -245 476 -278 640 -61
56 75 80 143 85 249 15 256 -132 437 -363 450 -44 2 -96 0 -117 -5z"/>
<path d="M55 2580 c-8 -13 5 -13 25 0 13 8 13 10 -2 10 -9 0 -20 -4 -23 -10z"/>
</g>
</svg>
